# xmcd
#
# Track frame offsets: 
#        150
#        12698
#        23834
#        34865
#        46162
#        56875
#        69820
#        80723
#        91535
#        101844
#        112366
#        123683
#        138809
#        148199
#        158854
#        172122
#        183706
#        203869
#        214546
#        226198
#        238122
#        248497
#        257646
#        266964
#        278168
#        287364
#        299292
#        310827
#
# Disc length: 4287 seconds
#
# Revision: 2
# Processed by: cddbd v1.5.2PL0 Copyright (c) Steve Scherf et al.
# Submitted via: ExactAudioCopyFreeDBPlugin 1.0
#
DISCID=a510bd1c
DTITLE=Various Artist - Gumbo Ya Ya:  The Cosimo Matassa Story, Volum
DTITLE=e 2
DYEAR=2013
DGENRE=Rhythm and Blues
TTITLE0=Frankie Ford - Sea Cruise
TTITLE1=Frankie Ford - Roberta
TTITLE2=Eddie Bo - I Love to Rock 'n' Roll
TTITLE3=Lee Allen - Creole Alley
TTITLE4=Huey "Piano" Smith and His Clowns - Would You Believe It (I Have
TTITLE4=a Cold)
TTITLE5=Joe and Ann - Gee Baby
TTITLE6=Frankie Ford - Alimony
TTITLE7=Fats Domino - I Want to Walk You Home
TTITLE8=Earl King - Everybody's Carried Away
TTITLE9=Johnny Adams - I Won't Cry
TTITLE10=Alvin "Red" Taylor - Snake Eyes
TTITLE11=Mac Rebennack - Storm Warning
TTITLE12=Fats Domino - Be My Guest
TTITLE13=Charles Brown and Amos Millburn - Educated Fool
TTITLE14=Professor Longhair - Go to the Mardi Gras
TTITLE15=Joe Jones - You Talk Too Much
TTITLE16=Jessie Hill - Ooh Poo Pah Doo (Pts. 1 and 2)
TTITLE17=Jessie Hill - Whip It on Me
TTITLE18=Huey "Piano" Smith and His Clowns - For Cryin' Out Loud
TTITLE19=Lee Dorsey - Lottie Mo
TTITLE20=Aaron Neville - Over You
TTITLE21=Frankie Ford - What's Going On
TTITLE22=Three Stooges - Chinese Bandits
TTITLE23=Ernie K-Doe - Mother-in-Law
TTITLE24=Fats Domino - Walking to New Orleans
TTITLE25=Roy Montrell - Mudd
TTITLE26=Aaron Neville - Show Me the Way
TTITLE27=Big Boy Myles - New Orleans
EXTD=Proper Box 174
EXTT0=
EXTT1=
EXTT2=
EXTT3=
EXTT4=
EXTT5=
EXTT6=
EXTT7=
EXTT8=
EXTT9=
EXTT10=
EXTT11=
EXTT12=
EXTT13=
EXTT14=
EXTT15=
EXTT16=
EXTT17=
EXTT18=
EXTT19=
EXTT20=
EXTT21=
EXTT22=
EXTT23=
EXTT24=
EXTT25=
EXTT26=
EXTT27=
PLAYORDER=
